<?xml version="1.0" encoding="iso-8859-1"?>
<!-- Generator: Adobe Illustrator 18.0.0, SVG Export Plug-In . SVG Version: 6.00 Build 0)  -->
<!DOCTYPE svg PUBLIC "-//W3C//DTD SVG 1.1//EN" "http://www.w3.org/Graphics/SVG/1.1/DTD/svg11.dtd">
<svg version="1.1" id="Capa_1" xmlns="http://www.w3.org/2000/svg" xmlns:xlink="http://www.w3.org/1999/xlink" x="0px" y="0px"
	 viewBox="0 0 297 297" style="enable-background:new 0 0 297 297;" xml:space="preserve">
<g>
	<path d="M252.032,0H44.968c-5.775,0-10.458,4.682-10.458,10.458v276.085c0,5.775,4.682,10.458,10.458,10.458h154.078
		c2.774,0,5.433-1.102,7.395-3.063l52.985-52.985c1.961-1.962,3.063-4.621,3.063-7.395V10.458C262.489,4.682,257.807,0,252.032,0z
		 M55.426,20.915h186.148v202.183l-42.527,0.001c-5.776,0-10.458,4.682-10.458,10.458v42.527H55.426V20.915z M209.504,261.295
		v-17.28l17.28-0.001L209.504,261.295z"/>
	<path d="M121.571,72.681h86.276c5.775,0,10.458-4.682,10.458-10.458s-4.682-10.458-10.458-10.458h-86.276
		c-5.775,0-10.458,4.682-10.458,10.458S115.796,72.681,121.571,72.681z"/>
	<path d="M121.571,124.447h86.276c5.775,0,10.458-4.682,10.458-10.458c0-5.775-4.682-10.458-10.458-10.458h-86.276
		c-5.775,0-10.458,4.682-10.458,10.458C111.114,119.765,115.796,124.447,121.571,124.447z"/>
	<path d="M87.058,51.766c-2.75,0-5.448,1.118-7.394,3.064c-1.946,1.946-3.064,4.644-3.064,7.394s1.118,5.448,3.064,7.393
		c1.946,1.946,4.644,3.065,7.394,3.065c2.76,0,5.448-1.119,7.393-3.065c1.956-1.944,3.065-4.643,3.065-7.393
		s-1.109-5.448-3.065-7.394C92.506,52.884,89.818,51.766,87.058,51.766z"/>
	<path d="M87.058,103.532c-2.75,0-5.448,1.118-7.394,3.064c-1.946,1.946-3.064,4.644-3.064,7.394c0,2.75,1.118,5.448,3.064,7.393
		c1.946,1.946,4.644,3.065,7.394,3.065c2.76,0,5.448-1.119,7.393-3.065c1.956-1.944,3.065-4.643,3.065-7.393
		c0-2.75-1.109-5.448-3.065-7.394C92.506,104.65,89.818,103.532,87.058,103.532z"/>
	<path d="M207.848,176.213c5.775,0,10.458-4.682,10.458-10.458s-4.682-10.458-10.458-10.458h-86.276
		c-5.775,0-10.458,4.682-10.458,10.458s4.682,10.458,10.458,10.458H207.848z"/>
	<path d="M87.058,155.298c-2.75,0-5.448,1.118-7.394,3.064c-1.946,1.946-3.064,4.644-3.064,7.394s1.118,5.448,3.064,7.393
		c1.946,1.946,4.644,3.065,7.394,3.065c2.75,0,5.448-1.119,7.393-3.065c1.946-1.944,3.065-4.643,3.065-7.393
		s-1.119-5.448-3.065-7.394C92.506,156.416,89.808,155.298,87.058,155.298z"/>
</g>
<g>
</g>
<g>
</g>
<g>
</g>
<g>
</g>
<g>
</g>
<g>
</g>
<g>
</g>
<g>
</g>
<g>
</g>
<g>
</g>
<g>
</g>
<g>
</g>
<g>
</g>
<g>
</g>
<g>
</g>
</svg>
